<?xml version="1.0" standalone="no"?><!DOCTYPE svg PUBLIC "-//W3C//DTD SVG 1.1//EN" "http://www.w3.org/Graphics/SVG/1.1/DTD/svg11.dtd">
<svg class="icon" width="128px" height="128.00px" viewBox="0 0 1024 1024" version="1.1"
    xmlns="http://www.w3.org/2000/svg">
    <path d="M486.4 745.472l1.024 0.512c0-50.688 14.848-99.84 43.008-141.824-1.024-9.728 1.024-19.968 6.144-28.16 22.528-28.672 39.424-61.44 49.664-96.768 26.624-21.504 44.032-53.248 48.128-87.552 3.072-50.688-9.728-52.736-9.728-52.736 18.944-56.832 25.088-270.336-115.2-244.736C485.376 47.616 337.92 13.824 269.312 131.584c-37.376 62.464-44.544 138.752-20.48 207.36 0 4.608-9.216-4.608-12.288 25.6-1.536 32.768 7.168 65.024 25.6 91.648 6.144 7.68 14.848 13.824 24.064 17.408 8.704 37.376 26.112 72.704 50.688 102.4 4.608 24.576-7.68 49.152-30.208 59.904-134.144 24.576-256 96.256-256 175.104v59.904c0 83.968 201.728 102.4 383.488 102.4 54.784-0.512 109.056-4.608 162.816-12.288-69.12-50.176-110.08-130.048-110.592-215.552z" />
    <path d="M751.616 526.848c-122.368 0-221.184 99.328-221.184 221.184 0 122.368 99.328 221.184 221.184 221.184s221.184-99.328 221.184-221.184c0.512-122.368-98.816-221.184-221.184-221.184z m125.44 246.784h-250.368v-50.688h250.368v50.688z" />
</svg>