<?xml version="1.0" standalone="no"?><!DOCTYPE svg PUBLIC "-//W3C//DTD SVG 1.1//EN" "http://www.w3.org/Graphics/SVG/1.1/DTD/svg11.dtd">
<svg class="icon" width="128px" height="128.00px" viewBox="0 0 1024 1024" version="1.1"
    xmlns="http://www.w3.org/2000/svg">
    <path d="M799.68 613.056a33.376 33.376 0 0 1-48.896 0v-3.904l-108.672-103.232a32.608 32.608 0 0 0-24.864-10.08c-9.6-0.48-18.912 3.2-25.6 10.08a34.944 34.944 0 0 0 0 48.896l106.336 106.368a33.376 33.376 0 0 1 0 48.896 34.944 34.944 0 0 1-48.896 0l-104.8-107.904a34.944 34.944 0 0 0-48.896 0 34.144 34.144 0 0 0 0 48.896l108.672 108.672a34.944 34.944 0 0 1-48.896 48.928l-109.44-108.704a37.248 37.248 0 0 0-24.096-10.08c-9.28 0-18.176 3.648-24.832 10.08a34.944 34.944 0 0 0 0 48.928l104 104.768a34.944 34.944 0 0 1 0 48.928 34.144 34.144 0 0 1-48.864 0L24.96 475.648a83.072 83.072 0 0 1 0-118.752l228.224-220.48a83.84 83.84 0 0 1 118.752 0l364.832 364.864 62.88 62.08a34.944 34.944 0 0 1 0 49.696z m-5.44-503.04l215.808 216.608c21.056 25.12 17.92 62.528-7.008 83.84l-121.088 121.088-290.304-294.208 117.984-119.552a60.544 60.544 0 0 1 84.608-7.744z" />
</svg>