<?xml version="1.0" standalone="no"?><!DOCTYPE svg PUBLIC "-//W3C//DTD SVG 1.1//EN" "http://www.w3.org/Graphics/SVG/1.1/DTD/svg11.dtd">
<svg class="icon" width="128px" height="128.00px" viewBox="0 0 1024 1024" version="1.1"
    xmlns="http://www.w3.org/2000/svg">
    <path d="M507.3 531.9c76-0.2 150.8 18.9 217.3 55.5-89.8 3-169.1 52.8-202 126.7-32.8 74-13 158.1 50.6 214.2h-438c-9.9 0.1-19.6-3.4-27.1-9.9-7-6-11.1-14.7-11.2-24 0.2-200 183.8-362.3 410.4-362.5zM752 620.7c20.4-1.2 38 14.3 39.3 34.7v84.5h95.6c13.4-1.6 26.6 4.6 33.8 16 7.2 11.4 7.2 26 0 37.4-7.2 11.4-20.4 17.7-33.8 16h-95.6v84.5c-2.5 19.8-19.3 34.7-39.3 34.7-20 0-36.8-14.9-39.3-34.7v-84.5h-95.6c-13.4 1.7-26.6-4.6-33.8-16-7.2-11.4-7.2-26 0-37.4 7.2-11.4 20.4-17.7 33.8-16h95.4v-84.3c1.4-20.6 19-36.1 39.5-34.9z m-244.6-89.2c-135.1-0.2 135-0.2 0 0z m0 0M294.3 316.3c0 120 97.2 217.2 217.2 217.2 120 0 217.2-97.2 217.2-217.2 0-120-97.2-217.2-217.2-217.2-119.9 0-217.2 97.2-217.2 217.2z m0 0" />
</svg>